# xmcd CD database file
#
# Track frame offsets:
#	150
#	23669
#	40381
#	51177
#	65553
#	93321
#	113491
#	136051
#	151776
#	172739
#
# Disc length: 2620 seconds
#
# Revision: 0
# Processed by: cddbd v1.5.2PL0 Copyright (c) Steve Scherf et al.
# Submitted via: CDex 1.70beta2
#
DISCID=700a3a0a
DTITLE=(V-A) - Le Blues Autor Zinc. Voll 11 - Blues Caravan Au Fil Du Temps
DYEAR=2006
DGENRE=Blues
TTITLE0=Sol - Tribute To Gabe
TTITLE1=Little Pink Anderson - See That My Grave Is Kept Clean
TTITLE2=John Dee Holeman - Hambone
TTITLE3=George Higgs - Greasy Greens
TTITLE4=Pura Fe - Rose Up Tuscarrora Nation
TTITLE5=Aynsley Lister, Ian Parker - Mississippi Lawnmower Blues
TTITLE6=Aynsley Lister, Erja Lyytinen, Ian Parker - Blues Caravan
TTITLE7=Erja Lyytinen - Last Love Song
TTITLE8=Ian Parker - Heal Me Love
TTITLE9=Aynsley Lister - 1010 degrees
EXTD=YEAR: 2006
EXTT0=
EXTT1=
EXTT2=
EXTT3=
EXTT4=
EXTT5=
EXTT6=
EXTT7=
EXTT8=
EXTT9=
PLAYORDER=
